<svg id="Layer_1" data-name="Layer 1" xmlns="http://www.w3.org/2000/svg" viewBox="0 0 271.84 105.77"><defs><style>.cls-1{fill:#1d1d1b;}.cls-2{fill:none;stroke:#1d1d1b;stroke-miterlimit:10;stroke-width:7px;}</style></defs><path class="cls-1" d="M123.34,104c-1-3.94-2.73-7.93-8.35-7.93-4.46,0-6.2,3.25-6.2,6.41,0,4,2.56,6.07,7.6,8.66,7.06,3.62,10.35,6.45,10.35,12.19,0,6.44-5.54,11.3-13.43,11.3a26.53,26.53,0,0,1-9.34-2,93.67,93.67,0,0,1-1.65-9.25l2-.49c1.2,4,4,9.43,10.14,9.43a6.4,6.4,0,0,0,6.76-6.76c0-4.41-2.4-6.31-7.64-9.15-6.29-3.41-9.92-6.32-9.92-12,0-5.52,4.52-10.55,12.64-10.55a39.41,39.41,0,0,1,8,1.13c.24,2.18.51,4.7,1,8.58Z" transform="translate(-68.04 -61.16)"/><path class="cls-1" d="M173.87,96.5c-4.93.48-5.4.79-5.4,5.82v23.87c0,5,.53,5.24,5.4,5.76v1.77H157.35V132c4.93-.6,5.39-.73,5.39-5.76V114.32H143v11.87c0,5,.49,5.18,5.33,5.76v1.77H131.87V132c4.79-.53,5.35-.73,5.35-5.76V102.32c0-5-.54-5.36-5.35-5.82V94.73h16.46V96.5c-4.75.42-5.33.84-5.33,5.82v9.37h19.74v-9.37c0-5-.65-5.39-5.39-5.82V94.73h16.52Z" transform="translate(-68.04 -61.16)"/><path class="cls-1" d="M200.71,133.72V132c3.88-.49,4.28-1.11,3.44-3.44s-1.91-5.19-3.1-8.72H188.31c-.9,2.55-1.79,4.88-2.59,7.23-1.31,3.88-.36,4.36,4.53,4.93v1.77h-14V132c3.78-.48,4.74-.92,6.82-6.26l12.43-31.41,2.1-.4c3.79,10.3,7.92,21.52,11.72,31.83,2,5.29,2.51,5.76,6.71,6.24v1.77Zm-5.87-31.38c-1.88,5-3.86,10.21-5.61,14.88h10.92Z" transform="translate(-68.04 -61.16)"/><path class="cls-1" d="M259.91,96.5c-3.81.43-5,1.07-5.22,3.81-.09,2-.22,4.43-.22,10v24H252l-25.56-31.12V117.9c0,5.36.17,8,.3,9.74.14,3,1.6,4,5.94,4.31v1.77H218.05V132c3.66-.3,5.11-1.2,5.37-4.12.2-2,.31-4.57.31-10V102.74a5.52,5.52,0,0,0-1.21-4.12c-1.13-1.5-2.42-1.83-5.28-2.12V94.73h9.48l25,29.53v-14c0-5.52-.11-8-.29-9.86-.18-2.68-1.49-3.6-6.32-3.9V94.73h14.82Z" transform="translate(-68.04 -61.16)"/><path class="cls-1" d="M305.76,96.5c-3.79.26-5.1,1.26-5.24,3.91-.09,1.45-.21,3.89-.21,9.17v6.73c0,5.94-.74,10.72-4.21,14.37-2.8,2.93-6.92,3.89-11.08,3.89-3.56,0-7.33-.74-10-2.82-3.58-2.74-5.31-6.79-5.31-13.76V102.71c0-5.42-.49-5.79-5.24-6.21V94.73h16.27V96.5c-4.74.32-5.23.79-5.23,6.21v15.18c0,8.39,4,13.12,11,13.12,8.27,0,11.05-5.28,11.05-15.06v-6.37c0-5.27-.18-7.53-.3-9.18-.19-2.71-1.63-3.66-6-3.9V94.73h14.48Z" transform="translate(-68.04 -61.16)"/><rect class="cls-2" x="3.5" y="3.5" width="264.84" height="98.77"/></svg>