<svg xmlns="http://www.w3.org/2000/svg" viewBox="0 0 838.73 196.06"><defs><style>.cls-1{font-size:92px;fill:#fcfcfc;font-family:EdsMarketBold, Eds Market Bold;letter-spacing:0.15em;}.cls-2{letter-spacing:0.12em;}.cls-3{letter-spacing:0.16em;}.cls-4{letter-spacing:0.15em;}.cls-5{fill:#232020;}</style></defs><g id="Object"><path d="M58.74,56.54c.55-.17,1.11-.33,1.66-.51L59,55.84a9.89,9.89,0,0,0-1,.54Z" transform="translate(-22.08 -22.2)"/><path d="M37.5,61.4a18.88,18.88,0,0,0-6.26-.9L30.11,61c1,.3,2.3.71,3.62,1.1C36.32,62.9,37.66,62.29,37.5,61.4Z" transform="translate(-22.08 -22.2)"/><path d="M30.11,61l-1.51-.46,1,.61.3,0Z" transform="translate(-22.08 -22.2)"/><path d="M528.77,49.25c35.33,1.36,70.79,2.27,106.25,2.94,1.18,0,2.18-.27,2.24-.67s-.86-.71-2-.7c-35.47-.73-70.76-1.66-106.08-3-1.19,0-2.17.27-2.33.65S527.67,49.2,528.77,49.25Z" transform="translate(-22.08 -22.2)"/><path d="M793.39,88.69c-.85.31-.81.72.06,1a5.27,5.27,0,0,0,2.92,0c.7-.25.68-.75-.07-1A5.31,5.31,0,0,0,793.39,88.69Z" transform="translate(-22.08 -22.2)"/><path d="M815.42,105.77q-38.34-1.65-77-3l5.41-1,5.37-.38c16.56-.11,33.13-.32,49.75-.73,6.2.08,11.34-1.59,11.67-3.75.1-2.11-4.51-3.82-10.49-4l2.9-.38c1-.09,1.67-.51,1.41-.84a4.06,4.06,0,0,0-2.58-.53c-3.5.49-6.93,1-10.37,1.52-31.56-.79-63.17-.54-94.77-.13,34-2.48,68.48-4.19,103.19-4.86-.71.26-.79.71.08,1a5.78,5.78,0,0,0,2.92,0c.82-.3.68-.76-.07-1l-.08,0q27.94-.5,56.07-.08c1.09,0,2-.3,2-.71s-1-.75-2.24-.74c-62.09-1-123.67,1.78-183.83,6.73-3.27,0-6.56.1-9.86.13v0c-1-1.63-3.21-3.07-6.16-4.24,21.29-.71,42.48-1.55,63.73-2.52q26.56.2,53.16.39c2.55,0,4.69-.66,4.75-1.62s-2-1.57-4.72-1.63c-4.35-.06-8.7-.08-13-.13,3.58-1.12,5.93-2.71,6.17-4.48s-1.56-3.28-4.58-4.49c19.18-1.62,38.18-3.42,56.73-5.82,1.09-.13,1.67-.51,1.28-.89a3.73,3.73,0,0,0-2.58-.43c-27,1-53.6,2.56-80.31,3.76-21.07-2.11-41.7-4.38-64.48-5.21-33.19-1.13-64.35,1.08-95.48,3.3q-16.79-.84-33.41-1.25c1.56-.81,2.49-1.79,2.49-2.84a1.83,1.83,0,0,0-.25-.78c9.75.13,19.54.24,29.51.34,92.33,1,179-6.29,267.35-12.27,5.65-.24,9.74-2,9.06-3.94s-5.88-3.34-11.51-3.1c-42.35,0-81.39,3.36-124.25,6.69-30.52,2.35-57.33,4.09-88,5.73C594.48,59.46,561.1,59,525.92,59a88,88,0,0,0-10.41-.4l-10.58.33c-27.53-.27-54.53-1.51-81.4-2.83,32.15-1.19,64.23-2.58,95.85-5.21,2.28-.1,3.79-.84,3.55-1.58-.4-.75-2.45-1.3-4.72-1.18-44.1,1.62-88.35,2.26-132.54,3.06-12.05-6.67-37.57-10.6-60.37-10.84a155,155,0,0,0-24.09,1.72c3.67.28,7.26.53,10.92.82-10.84.23-20.08,1.95-29.22,3.73-.79-.08-1.59-.17-2.44-.22-21.22-3.69-46-3-68.93-4.56.48.85,1.08,1.7,1.56,2.55-4.24-.65-6.71-2.2-11.36-2.66,1.31.62,2.52,1.25,3.83,1.87l-.28,0a68.44,68.44,0,0,0-17.17-2.05c-14.1-4-31.33-6.24-49.37-7.32a28.1,28.1,0,0,0-9.91-1.86,40.92,40.92,0,0,1-5-1c-11.21-4.16-24.91-7-40-9.14,2.91.79,6,1.58,8.86,2.36a94.15,94.15,0,0,0-13.54-1.37c.51.49,1.17,1,1.68,1.48-15-3.57-35.63-2.29-46,2.83s-6.75,12.17,8.28,15.74l2.17.55c-7.68.79-14.38,2.47-18.16,5.42-2,1.62-.25,3.67.19,5.56-.62,2.73,5.44,5.12,13.48,5.31a40.46,40.46,0,0,0,6.16-.32c9.28,1,18.76,1.81,27.79,3a7.93,7.93,0,0,0,4.89-.59c.8-.63,0-1.38-1.81-1.66-6.5-1.27-12.8-2.62-19.06-4L57.18,57a4.24,4.24,0,0,1,.83-.64L56.3,56l1.32-.37,1.42.2a18.63,18.63,0,0,1,2.74-.93c11.26,1,22.4,2,32.88,3.82.62.12-.41,1.34.71,1.79.57.22,1.15.42,1.76.62-1.89-.26-3.88-.49-6-.65l-13.2,2.83s0,0,0,0l-.63.16-3,.65a.63.63,0,0,1,0,.11l-.78.19c-1.2-.08-2.4-.17-3.61-.24a6.47,6.47,0,0,0-3.34.49,15.33,15.33,0,0,0-1.62-.92c-6.88-.6-6.88-.6-14-1.14a1.88,1.88,0,0,0,.24.75,29.76,29.76,0,0,1-5.38.19c-2.65.06-2.65.06-9.25-.46l3.19,1.23-2.8-.85.73,1.4-1.29-1.53-1.2,1.15-5.54-3.32-4,.67a7.53,7.53,0,0,0-1.24.69c-.06.41-.06.41-2.26,1.83a2.11,2.11,0,0,0,.17,1c.67.46.67.46.84,1.74A10.86,10.86,0,0,0,25,68c1.06.25,1.33.31,5.27,1.1-.34.22-.66.45-.95.68-.76,2.38-.76,2.38,4.16,7.9a32.08,32.08,0,0,0,7.19,2.6c5.16.53,5.16.53,11.13,1.07,0,0,1.29.21,3.53.48a34,34,0,0,1,3.28,1.94h0a15.16,15.16,0,0,0-3.19.48c-2.68.77-3.06,2.12-.8,3-3,3.66-1.19,7,2.56,10.14a4.71,4.71,0,0,0-1.52,3.81c-4.39,3.12-7.13,6.44-8.28,10l-.52,3.09c1.26,2.61,5,5,10.42,6.92l1.66.74-1.57,2.54c7,6.78,20.88,12.21,29.44,18.68l6.44,3.41c4.69,2.76,12.11,4.78,20.81,5.75l9.2,1c1.93.05,3.85.08,5.8.11-9.78,3.16-15.16,7.81-13.37,12.73,3.08,8.1,24.88,13.85,48.66,12.75,63.5-.32,124.8-.87,189.69-4.23,48-2.46,91.63-5.78,138.73-5.77,45.05-3.5,88.45-8,132.4-13.46,36.93-4.52,65.18-13.6,97.85-20.51,1-.18,1-.64.53-1a5.19,5.19,0,0,0-2.93-.15c-51.82,6-104,11.24-159.58,12.46-6.37.13-12.62.15-18.82.1a14.93,14.93,0,0,0-2.25-.24c-5.63-.39-11.29-.74-16.94-1.07l5.91-.09c3.9.06,7.24-1,7.52-2.35,0-.58-.54-1.11-1.45-1.54,14.44-1.45,28.57-3.33,42.65-5.32a64.55,64.55,0,0,0,11.4-1.36c16.29,1,32.62,1.73,49,2.65l4.05.4c5.38.29,10.56-.54,13.14-2.14a3.62,3.62,0,0,0,1.57-1.5c37.29-2.83,75.15-5,110.35-10.26,1.79-.27,2.73-.85,2.44-1.49a5.86,5.86,0,0,0,2.33,0,107.71,107.71,0,0,1,13.85-2.31c1.08-.22,1.67-.59,1.16-.92a4,4,0,0,0-2.7-.4c-5.07.62-10,1.37-14.57,2.4-.49.13-.81.32-.9.53a9.42,9.42,0,0,0-4.2-.4c-36.38,1.79-71.6,5.8-108.33,6.68,18-2.45,36.35-4.14,55.68-6,23.33-2.21,44.79-5.37,68.31-6.64,1.23,0,2-.38,1.92-.76s-1.16-.7-2.37-.6c-48.19,1.9-90.43,11.14-140.2,11.14-2,0-3.92,0-5.85-.1,15.35-3.22,30.43-6.51,45.46-9.75,45.78-1.37,91.37-3.42,136.4-6.43,2.2,0,4-.66,3.93-1.41S817.61,105.75,815.42,105.77Zm-766.21-34a8.31,8.31,0,0,1,1.81.87Zm110.87-1.66c-9.12-.57-18.38-1-27.88-1.2a80.49,80.49,0,0,0-10.38.42A69.43,69.43,0,0,0,109,63.76c8.52,1.21,18.25,1.69,27.19,2.5,9.93.92,19.69,1.76,29.41,2.53-1.14.1-2.28.17-3.43.26S158.9,69.05,160.08,70.13Zm20.34-20.69,5.26,2.24-.75,0-7-.94,1.29.62c-9-.53-17.9-1.08-26.78-1.72a361.63,361.63,0,0,0-40.56-3.93c4-.82,7.87-1.76,11.44-2.76,17.76,2.18,34.81,5.05,53.41,5.88C178,49,179.21,49.21,180.42,49.44ZM90.54,86.58h0L88,84.86S89,85.59,90.54,86.58Zm-30.45,33.5-.45-.32L65.07,112Z" transform="translate(-22.08 -22.2)"/><text class="cls-1" transform="translate(65.52 119.49)">SABN<tspan class="cls-2" x="348.22" y="0">I</tspan><tspan class="cls-3" x="395.14" y="0">T</tspan><tspan class="cls-4" x="478.21" y="0">’s</tspan></text><path class="cls-5" d="M138.09,195.75a12.57,12.57,0,0,1,8.76,3.09,11.14,11.14,0,0,1,0,16.08,12.49,12.49,0,0,1-8.76,3.11h-7.84V195.75Zm-2.41,18.16h2.41A6.35,6.35,0,0,0,143,212a8.22,8.22,0,0,0,0-10.22,6.34,6.34,0,0,0-4.89-1.9h-2.41Z" transform="translate(-22.08 -22.2)"/><path class="cls-5" d="M181.75,195.69v4.12h-8.07v4.8h7.11v4.13h-7.11v5.17h8.07V218h-13.5V195.69Z" transform="translate(-22.08 -22.2)"/><path class="cls-5" d="M208.51,199.71a2.59,2.59,0,0,0-1.67.54,1.94,1.94,0,0,0-.65,1.56,2.25,2.25,0,0,0,.6,1.64,4,4,0,0,0,1.58,1c.64.22,1.36.43,2.15.63s1.59.45,2.37.73a10.67,10.67,0,0,1,2.14,1.06,4.65,4.65,0,0,1,1.57,1.81,5.78,5.78,0,0,1,.61,2.77,6.22,6.22,0,0,1-2.31,4.84,8.87,8.87,0,0,1-6.06,2,9.49,9.49,0,0,1-6.06-1.81,6.15,6.15,0,0,1-2.3-5.14h5.78c.14,1.77,1.05,2.66,2.72,2.66a2.59,2.59,0,0,0,1.85-.62,2.06,2.06,0,0,0,.66-1.57,2.09,2.09,0,0,0-.6-1.55,4,4,0,0,0-1.57-.95,21.54,21.54,0,0,0-2.16-.65q-1.18-.31-2.37-.75a11.56,11.56,0,0,1-2.14-1.07,4.42,4.42,0,0,1-1.57-1.78,5.86,5.86,0,0,1-.6-2.74,6.08,6.08,0,0,1,2.31-5,9.07,9.07,0,0,1,5.92-1.88,9.53,9.53,0,0,1,5.83,1.64,6.22,6.22,0,0,1,2.32,5.15H211a3,3,0,0,0-.77-1.86A2.28,2.28,0,0,0,208.51,199.71Z" transform="translate(-22.08 -22.2)"/><path class="cls-5" d="M236,218V195.75h5.42V218Z" transform="translate(-22.08 -22.2)"/><path class="cls-5" d="M262.78,215a11.72,11.72,0,0,1,0-16.35,11.2,11.2,0,0,1,8.11-3.22,11.49,11.49,0,0,1,6.61,2,10.26,10.26,0,0,1,4,5.46h-6.48a4.25,4.25,0,0,0-4.06-2.44,5.65,5.65,0,0,0-4.4,1.74,7.62,7.62,0,0,0,0,9.34,5.56,5.56,0,0,0,4.3,1.74,5,5,0,0,0,3.16-1,4.69,4.69,0,0,0,1.64-2.59H269.4v-4.13h12.13v4.13a10.79,10.79,0,0,1-3.34,5.68,9.9,9.9,0,0,1-3.22,2.06,10.55,10.55,0,0,1-4.08.79A11.2,11.2,0,0,1,262.78,215Z" transform="translate(-22.08 -22.2)"/><path class="cls-5" d="M314.07,195.69h5.43V218h-5.43L305,204V218h-5.43V195.69H305l9.08,14.06Z" transform="translate(-22.08 -22.2)"/></g></svg>